<svg width="84" height="19" viewBox="0 0 84 19" fill="none" xmlns="http://www.w3.org/2000/svg">
<g opacity="0.6">
<path d="M5 18H3C1.89543 18 1 17.1046 1 16V3C1 1.89543 1.89543 1 3 1H5" stroke="#1A1B1C"/>
<path d="M20.366 15L16.586 5.2H14.85L11.084 15H12.988L13.828 12.718H17.608L18.448 15H20.366ZM15.732 7.566L17.048 11.15H14.416L15.732 7.566ZM22.8712 15V8.098L27.1272 15H29.1152V5.2H27.2672V12.116L23.0252 5.2H21.0232V15H22.8712ZM39.138 15L35.358 5.2H33.622L29.856 15H31.76L32.6 12.718H36.38L37.22 15H39.138ZM34.504 7.566L35.82 11.15H33.188L34.504 7.566ZM46.2353 15V13.39H41.6573V5.2H39.7953V15H46.2353ZM50.2941 15V10.926L53.6681 5.2H51.6801L49.3701 9.204L47.0741 5.2H45.0721L48.4461 10.926V15H50.2941ZM57.1252 15.112C59.2812 15.112 60.7792 14.006 60.7792 12.186C60.7792 8.364 55.4452 9.988 55.4452 7.818C55.4452 7.132 56.0472 6.684 57.0132 6.684C58.0492 6.684 58.7212 7.258 58.8052 8.112H60.5692C60.4852 6.278 59.0852 5.088 57.0132 5.088C55.0252 5.088 53.6392 6.208 53.6392 7.818C53.6392 11.57 58.9032 10.114 58.9032 12.214C58.9032 13.082 58.1752 13.502 57.1252 13.502C55.9492 13.502 55.2212 12.802 55.1232 11.71H53.3452C53.4432 13.768 54.8992 15.112 57.1252 15.112ZM63.6903 15V5.2H61.8283V15H63.6903ZM68.5007 15.112C70.6567 15.112 72.1547 14.006 72.1547 12.186C72.1547 8.364 66.8207 9.988 66.8207 7.818C66.8207 7.132 67.4227 6.684 68.3887 6.684C69.4247 6.684 70.0967 7.258 70.1807 8.112H71.9447C71.8607 6.278 70.4607 5.088 68.3887 5.088C66.4007 5.088 65.0147 6.208 65.0147 7.818C65.0147 11.57 70.2787 10.114 70.2787 12.214C70.2787 13.082 69.5507 13.502 68.5007 13.502C67.3247 13.502 66.5967 12.802 66.4987 11.71H64.7207C64.8187 13.768 66.2747 15.112 68.5007 15.112Z" fill="#1A1B1C"/>
<path d="M79 18H81C82.1046 18 83 17.1046 83 16V3C83 1.89543 82.1046 1 81 1H79" stroke="#1A1B1C"/>
</g>
</svg>
