<svg width="67" height="60" viewBox="0 0 67 60" fill="none" xmlns="http://www.w3.org/2000/svg">
<path fill-rule="evenodd" clip-rule="evenodd" d="M1.66917 56.874C1.66917 56.0456 2.34074 55.374 3.16917 55.374C3.9976 55.374 4.66917 56.0456 4.66917 56.874C4.66917 57.7025 3.9976 58.374 3.16917 58.374C2.34074 58.374 1.66917 57.7025 1.66917 56.874ZM0.669174 56.874C0.669174 55.4933 1.78846 54.374 3.16917 54.374C3.68565 54.374 4.16555 54.5306 4.56396 54.799L66.3374 -1.52588e-05L67.001 0.748062L5.26634 55.5127C5.52114 55.9044 5.66917 56.3719 5.66917 56.874C5.66917 58.2547 4.54988 59.374 3.16917 59.374C1.78846 59.374 0.669174 58.2547 0.669174 56.874Z" fill="#1A1B1C"/>
</svg>
